<svg xmlns="http://www.w3.org/2000/svg" viewBox="0 0 64 64" width="64" height="64">
  <!-- 미사일 본체 -->
  <defs>
    <linearGradient id="bodyGrad" x1="0%" y1="0%" x2="100%" y2="0%">
      <stop offset="0%" style="stop-color:#4a4a4a"/>
      <stop offset="50%" style="stop-color:#8a8a8a"/>
      <stop offset="100%" style="stop-color:#4a4a4a"/>
    </linearGradient>
    <linearGradient id="noseGrad" x1="0%" y1="0%" x2="100%" y2="0%">
      <stop offset="0%" style="stop-color:#cc0000"/>
      <stop offset="50%" style="stop-color:#ff3333"/>
      <stop offset="100%" style="stop-color:#cc0000"/>
    </linearGradient>
  </defs>
  
  <!-- 불꽃 -->
  <ellipse cx="32" cy="58" rx="6" ry="4" fill="#ff6600" opacity="0.8"/>
  <ellipse cx="32" cy="56" rx="4" ry="6" fill="#ffcc00"/>
  <ellipse cx="32" cy="54" rx="3" ry="4" fill="#ffffff"/>
  
  <!-- 미사일 본체 -->
  <rect x="26" y="20" width="12" height="32" rx="2" fill="url(#bodyGrad)"/>
  
  <!-- 미사일 머리 (탄두) -->
  <path d="M26 20 L32 4 L38 20 Z" fill="url(#noseGrad)"/>
  
  <!-- 날개 -->
  <path d="M26 44 L18 52 L18 48 L26 42 Z" fill="#333"/>
  <path d="M38 44 L46 52 L46 48 L38 42 Z" fill="#333"/>
  
  <!-- 꼬리 날개 -->
  <path d="M26 50 L20 54 L20 50 L26 48 Z" fill="#555"/>
  <path d="M38 50 L44 54 L44 50 L38 48 Z" fill="#555"/>
  
  <!-- 디테일 라인 -->
  <line x1="26" y1="30" x2="38" y2="30" stroke="#333" stroke-width="1"/>
  <line x1="26" y1="38" x2="38" y2="38" stroke="#333" stroke-width="1"/>
</svg>
